<svg xmlns="http://www.w3.org/2000/svg" viewBox="0 0 100 100" fill="none">
  <!-- Rounded House Roof Outer Frame -->
  <path d="M15 45L46.2 18.8C48.4 17 51.6 17 53.8 18.8L85 45" stroke="#2563EB" stroke-width="8" stroke-linecap="round" stroke-linejoin="round"/>
  <!-- House Walls -->
  <path d="M22 46.5V78C22 81.3 24.7 84 28 84H72C75.3 84 78 81.3 78 78V46.5" stroke="#2563EB" stroke-width="8" stroke-linecap="round" stroke-linejoin="round"/>
  <!-- Intertwined Heart in Center representing Care/Compassion -->
  <path d="M50 68C43.5 61.5 35 52 35 44C35 38.5 39.5 34 45 34C48 34 50 36 50 36C50 36 52 34 55 34C60.5 34 65 38.5 65 44C65 52 56.5 61.5 50 68Z" fill="#10B981" fill-opacity="0.1" stroke="#10B981" stroke-width="6" stroke-linecap="round" stroke-linejoin="round"/>
</svg>
